<?xml version="1.0" encoding="UTF-8"?>
<svg id="Layer_2" data-name="Layer 2" xmlns="http://www.w3.org/2000/svg" viewBox="0 0 131.78 191.71">
  <g id="Layer_1-2" data-name="Layer 1">
    <path d="m105.08,191.69c-7.57,0-15.14,0-22.71,0-.5,0-1,.02-1.5-.02-1.73-.13-2.17-.5-2.39-2.25-.24-1.89-.29-3.81-.56-5.7-1.47-10.07-5.74-18.82-12.56-26.36-4.12-4.55-9.02-8.07-14.24-11.23-17.34-10.49-30.94-24.53-40.2-42.59-5.31-10.36-8.73-21.35-10.03-32.95-.39-3.47-.78-6.93-.86-10.42-.09-3.78-.05-3.79,3.64-3.79,14.89,0,29.79,0,44.68,0q3.62,0,3.63-3.53c0-7.56-.02-15.12,0-22.67.02-5.58,1.25-10.84,4.02-15.75C64.6-.82,85.3-4.74,98.91,6.33c7.1,5.78,10.83,13.32,10.8,22.33-.04,14.61-10.36,26.13-24.21,28.43-2.47.41-4.95.55-7.45.54-7.16-.03-14.31-.02-21.47-.03-.5,0-1-.01-1.5.01-1.76.1-2.12.39-1.9,2.11.32,2.47.33,4.97.9,7.41,1.87,7.95,5.1,15.18,10.35,21.58,4.41,5.37,9.71,9.52,15.58,13.05,9.18,5.52,17.48,12.13,24.73,20.02,13.27,14.44,21.71,31.28,25.28,50.58,1.02,5.49,1.4,11.03,1.74,16.57.14,2.26-.31,2.74-2.72,2.75-7.99.02-15.97,0-23.96,0v-.02Z"/>
  </g>
</svg>